<svg width="237" height="87" viewBox="0 0 237 87" fill="none" xmlns="http://www.w3.org/2000/svg">
<path d="M54.5 0L91.3061 65.25H17.6939L54.5 0Z" fill="#FF6767" fill-opacity="0.5"/>
<path d="M42.5 0L79.3061 65.25H5.69392L42.5 0Z" fill="#FF0404"/>
<path d="M100.526 42.4844L101.057 39.2727H120.194L119.663 42.4844H111.947L108.374 64H104.655L108.229 42.4844H100.526ZM118.102 64L121.193 45.4545H124.682L124.187 48.4006H124.381C124.88 47.4025 125.608 46.6177 126.566 46.0462C127.524 45.4666 128.546 45.1768 129.633 45.1768C129.866 45.1768 130.132 45.1849 130.43 45.201C130.727 45.209 130.969 45.2292 131.154 45.2614L130.574 48.7145C130.438 48.6742 130.188 48.63 129.826 48.5817C129.464 48.5253 129.089 48.4972 128.703 48.4972C127.858 48.4972 127.073 48.6783 126.349 49.0405C125.624 49.3946 125.016 49.8897 124.525 50.5256C124.034 51.1534 123.716 51.8698 123.572 52.6747L121.712 64H118.102ZM131.217 64L134.308 45.4545H137.918L134.827 64H131.217ZM136.868 42.5568C136.24 42.5568 135.709 42.3475 135.274 41.929C134.848 41.5024 134.65 40.9953 134.683 40.4077C134.715 39.812 134.964 39.3049 135.431 38.8864C135.898 38.4598 136.441 38.2464 137.061 38.2464C137.689 38.2464 138.216 38.4598 138.643 38.8864C139.069 39.3049 139.271 39.812 139.246 40.4077C139.214 40.9953 138.965 41.5024 138.498 41.929C138.039 42.3475 137.496 42.5568 136.868 42.5568ZM138.537 70.9545L142.811 45.4545H146.337L145.842 48.4609H146.144C146.417 48.0746 146.788 47.6278 147.254 47.1207C147.729 46.6136 148.353 46.1709 149.126 45.7926C149.899 45.4062 150.861 45.2131 152.012 45.2131C153.509 45.2131 154.776 45.5914 155.815 46.348C156.853 47.1046 157.594 48.1953 158.036 49.62C158.479 51.0447 158.535 52.7592 158.205 54.7635C157.875 56.7678 157.256 58.4863 156.346 59.919C155.436 61.3437 154.334 62.4425 153.038 63.2152C151.75 63.9799 150.353 64.3622 148.848 64.3622C147.721 64.3622 146.832 64.1731 146.18 63.7947C145.536 63.4164 145.057 62.9737 144.743 62.4666C144.429 61.9595 144.192 61.5088 144.031 61.1143H143.813L142.171 70.9545H138.537ZM144.803 54.7273C144.594 56.0312 144.594 57.1742 144.803 58.1562C145.013 59.1383 145.431 59.907 146.059 60.4624C146.695 61.0097 147.532 61.2834 148.57 61.2834C149.649 61.2834 150.595 60.9976 151.408 60.4261C152.221 59.8466 152.893 59.0618 153.424 58.0717C153.963 57.0817 154.338 55.9669 154.547 54.7273C154.748 53.5038 154.744 52.4051 154.535 51.4311C154.334 50.4571 153.919 49.6884 153.291 49.125C152.664 48.5616 151.806 48.2798 150.72 48.2798C149.665 48.2798 148.731 48.5495 147.919 49.0888C147.114 49.6281 146.445 50.3807 145.914 51.3466C145.383 52.3125 145.013 53.4394 144.803 54.7273ZM185.055 39.2727L180.95 64H177.521L167.97 45.8651H167.753L164.722 64H160.991L165.097 39.2727H168.55L178.112 57.4318H178.342L181.36 39.2727H185.055ZM194.047 64.3743C192.228 64.3743 190.722 63.9839 189.531 63.2031C188.348 62.4143 187.519 61.3075 187.044 59.8828C186.569 58.45 186.492 56.7718 186.814 54.848C187.128 52.9484 187.76 51.2741 188.71 49.8253C189.66 48.3764 190.843 47.2455 192.26 46.4325C193.684 45.6196 195.258 45.2131 196.981 45.2131C198.027 45.2131 199.013 45.3861 199.939 45.7322C200.872 46.0784 201.665 46.6217 202.317 47.3622C202.969 48.1027 203.42 49.0646 203.67 50.2479C203.927 51.4231 203.919 52.8518 203.645 54.5341L203.44 55.8139H188.686L189.108 53.1094H200.313C200.482 52.1596 200.438 51.3184 200.18 50.5859C199.923 49.8454 199.48 49.2618 198.852 48.8352C198.232 48.4086 197.452 48.1953 196.51 48.1953C195.544 48.1953 194.642 48.4489 193.805 48.956C192.968 49.4631 192.268 50.111 191.704 50.8999C191.149 51.6806 190.799 52.4856 190.654 53.3146L190.231 55.7898C190.022 57.142 190.058 58.2287 190.34 59.0497C190.63 59.8707 191.137 60.4664 191.861 60.8366C192.586 61.2069 193.491 61.392 194.578 61.392C195.278 61.392 195.926 61.2955 196.522 61.1023C197.126 60.901 197.661 60.6072 198.128 60.2209C198.595 59.8265 198.985 59.3355 199.299 58.7479L202.607 59.3636C202.164 60.3698 201.528 61.2512 200.699 62.0078C199.87 62.7564 198.892 63.34 197.765 63.7585C196.647 64.169 195.407 64.3743 194.047 64.3743ZM222.363 49.9822L218.994 50.5618C218.922 50.1352 218.773 49.7327 218.548 49.3544C218.33 48.9761 217.996 48.6702 217.545 48.4368C217.095 48.1953 216.495 48.0746 215.746 48.0746C214.708 48.0746 213.799 48.312 213.018 48.7869C212.245 49.2618 211.802 49.8655 211.69 50.598C211.585 51.1937 211.726 51.6766 212.112 52.0469C212.499 52.4091 213.179 52.7109 214.153 52.9524L217.002 53.6286C218.644 54.023 219.819 54.6387 220.528 55.4759C221.244 56.3049 221.494 57.3835 221.276 58.7116C221.091 59.8144 220.608 60.7924 219.827 61.6456C219.055 62.4988 218.065 63.1669 216.857 63.6499C215.65 64.1328 214.306 64.3743 212.825 64.3743C210.716 64.3743 209.074 63.9276 207.898 63.0341C206.723 62.1406 206.12 60.8769 206.087 59.2429L209.661 58.7116C209.726 59.6212 210.052 60.3094 210.639 60.7763C211.235 61.2351 212.06 61.4645 213.114 61.4645C214.322 61.4725 215.332 61.219 216.145 60.7038C216.958 60.1887 217.421 59.5649 217.533 58.8324C217.63 58.2609 217.501 57.786 217.147 57.4077C216.801 57.0294 216.189 56.7396 215.312 56.5384L212.317 55.8501C210.643 55.4557 209.46 54.8198 208.768 53.9425C208.076 53.0651 207.842 51.9624 208.067 50.6342C208.245 49.5476 208.703 48.6018 209.444 47.7969C210.192 46.9839 211.138 46.352 212.281 45.9013C213.424 45.4425 214.688 45.2131 216.072 45.2131C218.093 45.2131 219.61 45.6477 220.624 46.517C221.638 47.3783 222.218 48.5334 222.363 49.9822ZM236.1 45.4545L235.629 48.3523H225.499L225.97 45.4545H236.1ZM229.411 41.0114H233.021L230.099 58.5547C229.987 59.255 230.007 59.7822 230.16 60.1364C230.313 60.4825 230.546 60.7199 230.86 60.8487C231.182 60.9695 231.54 61.0298 231.934 61.0298C232.224 61.0298 232.478 61.0097 232.695 60.9695C232.912 60.9292 233.086 60.897 233.214 60.8729L233.407 63.8551C233.166 63.9356 232.84 64.0161 232.43 64.0966C232.027 64.1851 231.536 64.2334 230.956 64.2415C230.007 64.2576 229.149 64.0885 228.385 63.7344C227.62 63.3722 227.049 62.8248 226.67 62.0923C226.292 61.3518 226.199 60.4221 226.393 59.3033L229.411 41.0114Z" fill="#FB5656"/>
</svg>
